HIERARCHY
ROOT Hips
{
     OFFSET 27.67420 98.70060 -19.99680
     CHANNELS 6 Xposition Yposition Zposition Zrotation Xrotation Yrotation
     JOINT Spine
     {
          OFFSET 0.00000 11.89050 0.00000
          CHANNELS 3 Zrotation Xrotation Yrotation
          JOINT Spine1
          {
               OFFSET 0.00000 25.65740 0.12766
               CHANNELS 3 Zrotation Xrotation Yrotation
               JOINT HEad
               {
                    OFFSET 0.00000 8.73416 0.01134
                    CHANNELS 3 Zrotation Xrotation Yrotation
                    End Site
                    {
                         OFFSET -0.29000 12.77420 2.51395
                    }
               }
               JOINT LeftShoulder1
               {
                    OFFSET 8.99000 -0.36225 -0.22000
                    CHANNELS 3 Zrotation Xrotation Yrotation
                    JOINT LeftArm
                    {
                         OFFSET 10.28270 -0.00338 0.32212
                         CHANNELS 3 Zrotation Xrotation Yrotation
                         JOINT LeftForeArm
                         {
                              OFFSET 32.76690 0.09914 -1.42434
                              CHANNELS 3 Zrotation Xrotation Yrotation
                              JOINT LeftHand
                              {
                                   OFFSET 27.56430 0.08536 1.02216
                                   CHANNELS 3 Zrotation Xrotation Yrotation
                                   End Site
                                   {
                                        OFFSET 16.74430 -0.60000 1.50291
                                   }
                              }
                         }
                    }
               }
               JOINT RightShoulder
               {
                    OFFSET -8.99000 -0.36225 -0.22000
                    CHANNELS 3 Zrotation Xrotation Yrotation
                    JOINT RightArm
                    {
                         OFFSET -10.28270 -0.00338 0.32212
                         CHANNELS 3 Zrotation Xrotation Yrotation
                         JOINT RightForeArm
                         {
                              OFFSET -32.89710 0.09914 -1.42434
                              CHANNELS 3 Zrotation Xrotation Yrotation
                              JOINT RightHand
                              {
                                   OFFSET -27.49210 0.08536 1.02216
                                   CHANNELS 3 Zrotation Xrotation Yrotation
                                   End Site
                                   {
                                        OFFSET -16.63120 -0.60000 1.50291
                                   }
                              }
                         }
                    }
               }
          }
     }
     JOINT LeftUpLeg
     {
          OFFSET 8.94580 -8.66707 0.10165
          CHANNELS 3 Zrotation Xrotation Yrotation
          JOINT LeftLeg
          {
               OFFSET 0.00000 -44.42270 1.37270
               CHANNELS 3 Zrotation Xrotation Yrotation
               JOINT LeftFoot
               {
                    OFFSET -0.25355 -42.09240 -1.46059
                    CHANNELS 3 Zrotation Xrotation Yrotation
                    JOINT LeftToes
                    {
                         OFFSET -0.04000 -4.41509 8.49910
                         CHANNELS 3 Zrotation Xrotation Yrotation
                         End Site
                         {
                              OFFSET 0.08000 -0.04745 9.77979
                         }
                    }
               }
          }
     }
     JOINT RightUpLeg
     {
          OFFSET -8.94580 -8.66707 0.10165
          CHANNELS 3 Zrotation Xrotation Yrotation
          JOINT RightLeg
          {
               OFFSET 0.00000 -44.42270 1.37270
               CHANNELS 3 Zrotation Xrotation Yrotation
               JOINT RightFoot
               {
                    OFFSET 0.25355 -42.09240 -1.46059
                    CHANNELS 3 Zrotation Xrotation Yrotation
                    JOINT RightToes
                    {
                         OFFSET 0.04000 -4.41509 8.49910
                         CHANNELS 3 Zrotation Xrotation Yrotation
                         End Site
                         {
                              OFFSET -0.08000 -0.13745 9.77979
                         }
                    }
               }
          }
     }
}
MOTION
Frames: 16
Frame Time: 0.01667
21.39730 93.16600 -39.41680 -6.60207 -14.24360 -52.55600 5.12191 7.99133 -1.49805 5.57915 16.27860 -2.33754 -22.51710 5.39398 26.86360 0.00000 0.00000 0.00000 -41.32750 14.96230 -1.23508 29.87710 54.28940 -63.28650 5.51760 10.94150 29.33350 10.62960 0.75931 2.72692 63.29180 4.64635 61.71290 2.66584 28.28340 95.87340 -6.87471 9.32321 6.55279 20.34740 -5.54726 5.02876 -15.97160 24.70030 33.55060 -0.72947 -0.50659 0.03305 -2.87808 -5.86159 3.82372 -20.24160 -4.48602 1.56435 -2.91664 45.30400 5.10979 9.60466 -29.47010 1.59857 0.41989 6.06217 -13.18780 
21.23790 93.32570 -39.89290 -6.57487 -14.29390 -51.20290 5.32736 7.89813 -1.47197 5.68508 16.13250 -2.22618 -22.21560 5.16889 26.10390 0.00000 0.00000 0.00000 -41.98470 10.78690 -3.15305 26.49930 50.61320 -61.70460 9.06907 11.50760 26.52590 10.78230 0.77109 2.76758 63.45930 4.10795 61.72090 2.00867 28.26060 96.31050 -6.66515 9.35546 6.31048 20.42810 -6.00880 4.61106 -15.62800 24.76800 32.50100 -1.09522 -0.61105 0.05554 -2.93707 -5.79814 3.49825 -19.73470 -3.77595 1.47034 -2.52333 45.06530 3.88773 9.85637 -29.77120 1.67557 0.68429 6.95713 -13.78670 
21.06680 93.51680 -40.31230 -6.53696 -14.28230 -49.76460 5.52603 7.77127 -1.43178 5.71702 15.92820 -2.07065 -21.81600 5.07107 25.24990 0.00000 0.00000 0.00000 -42.96160 7.07705 -5.24751 22.62780 46.48460 -59.90850 12.26870 11.81260 23.44570 10.91820 0.77954 2.78850 63.61240 3.52397 61.83350 1.41884 28.26470 96.74160 -6.46139 9.38530 6.08791 20.55660 -6.48321 4.29098 -15.31690 24.76450 31.62280 -1.27823 -0.48456 0.06746 -3.31101 -6.26707 3.27098 -19.20510 -3.01861 1.28730 -2.07094 44.71320 2.71878 9.97461 -30.08160 1.72733 1.03739 8.13676 -14.86820 
20.88290 93.72710 -40.67380 -6.49593 -14.22670 -48.25730 5.71238 7.62434 -1.38989 5.66393 15.69230 -1.89656 -21.20090 5.17447 24.39530 0.00000 0.00000 0.00000 -44.16680 3.80582 -7.48359 19.04690 42.21110 -58.68100 14.83100 11.87390 20.48730 11.00610 0.78569 2.80670 63.81120 2.92684 62.03750 1.02299 28.30640 97.09450 -6.34328 9.40410 5.92058 20.72620 -6.92714 4.02328 -15.05420 24.61270 30.97430 -1.25815 -0.20619 0.06757 -3.88922 -7.07185 3.09273 -18.69300 -2.21349 1.03741 -1.48871 44.24490 1.48816 9.89846 -30.29640 1.73062 1.37942 9.22775 -16.11800 
20.68570 93.94090 -40.97400 -6.48754 -14.14390 -46.70920 5.87699 7.47482 -1.35187 5.53085 15.45710 -1.72097 -20.36640 5.49104 23.57780 0.00000 0.00000 0.00000 -45.50050 0.87090 -9.81627 16.38150 38.29300 -58.60730 16.69370 11.80130 18.07980 11.02910 0.79093 2.83724 64.09600 2.33690 62.29520 0.83743 28.38860 97.35360 -6.34345 9.40922 5.81515 20.92730 -7.30193 3.81569 -14.76270 24.30910 30.44750 -1.13949 0.11732 0.06110 -4.57951 -8.00190 2.82800 -18.19950 -1.33403 0.77757 -0.73601 43.65050 0.07445 9.60427 -30.32150 1.67135 1.58822 9.87870 -17.20030 
20.47500 94.14410 -41.21240 -6.53670 -14.05300 -45.16840 5.99468 7.33620 -1.30402 5.32812 15.24370 -1.52930 -19.44780 5.95799 22.74790 0.00000 0.00000 0.00000 -46.88470 -1.88021 -12.20770 14.85960 35.19230 -59.87550 17.97510 11.70370 16.40250 11.00430 0.79641 2.88348 64.48810 1.73659 62.54960 0.81457 28.51860 97.54040 -6.42759 9.40432 5.76513 21.14630 -7.58358 3.68683 -14.37010 23.88840 29.87630 -1.04907 0.33964 0.05564 -5.18386 -8.74545 2.47224 -17.71110 -0.37749 0.55342 0.14143 42.94530 -1.52477 9.15046 -30.13690 1.56152 1.60349 9.96900 -17.94060 
20.25440 94.32790 -41.38950 -6.62371 -13.97090 -43.68440 6.04247 7.21289 -1.22835 5.05461 15.05530 -1.29475 -18.59910 6.48638 21.84760 0.00000 0.00000 0.00000 -48.27930 -4.57048 -14.62570 14.31440 33.06660 -62.28830 18.83200 11.62370 15.31710 10.96990 0.80222 2.93513 64.98770 1.10211 62.78980 0.90923 28.70440 97.66880 -6.53489 9.39501 5.76400 21.35650 -7.76904 3.60649 -13.88030 23.35600 29.17970 -1.04684 0.35732 0.05554 -5.47502 -9.02327 2.15588 -17.23870 0.60824 0.35915 1.02610 42.18170 -3.16974 8.67953 -29.79650 1.43795 1.45347 9.60721 -18.34460 
20.03330 94.49210 -41.50040 -6.70904 -13.89430 -42.29180 6.02719 7.10126 -1.12224 4.70538 14.88490 -1.00824 -17.86850 6.99305 20.87790 0.00000 0.00000 0.00000 -49.68170 -7.23940 -17.03860 14.35690 31.72650 -65.41530 19.39260 11.54830 14.51830 10.94130 0.80720 2.97924 65.59560 0.44681 63.06170 1.05178 28.93420 97.77070 -6.62768 9.38583 5.78499 21.53210 -7.87201 3.54125 -13.32480 22.68950 28.36640 -1.11576 0.21170 0.05983 -5.43126 -8.84594 1.94776 -16.80580 1.55711 0.17181 1.82547 41.41610 -4.69966 8.33141 -29.39240 1.33753 1.22843 9.04229 -18.54820 
19.82160 94.64160 -41.53580 -6.77169 -13.79420 -41.00470 5.97926 6.99419 -0.99376 4.29113 14.72320 -0.67579 -17.19290 7.40139 19.87400 0.00000 0.00000 0.00000 -51.11290 -9.83772 -19.44330 14.53210 30.81500 -68.76300 19.76240 11.45610 13.76070 10.90470 0.80961 3.00763 66.29310 -0.19369 63.40900 1.14954 29.15940 97.91680 -6.70600 9.37926 5.77959 21.67510 -7.92497 3.48486 -12.73090 21.89410 27.47900 -1.20993 -0.00111 0.06535 -5.15569 -8.38702 1.87108 -16.41330 2.42523 0.00096 2.52601 40.67620 -6.04038 8.17760 -29.03060 1.28097 1.04841 8.59832 -18.75410 
19.62630 94.78040 -41.48990 -6.80773 -13.63310 -39.82410 5.91887 6.88529 -0.84735 3.83859 14.55920 -0.30523 -16.47980 7.66286 18.86260 0.00000 0.00000 0.00000 -52.59900 -12.28750 -21.87010 14.46910 30.05500 -71.94550 20.06980 11.35160 12.98640 10.84470 0.80877 3.01997 67.02310 -0.80563 63.84280 1.17845 29.32170 98.14620 -6.78877 9.37462 5.73029 21.81140 -7.97740 3.42193 -12.14460 21.02010 26.58160 -1.30143 -0.28803 0.06996 -4.61978 -7.63986 1.99911 -16.03760 3.18638 -0.13130 3.13781 39.96980 -7.17159 8.21229 -28.80690 1.27174 1.02621 8.58320 -19.16780 
19.45540 94.90930 -41.36360 -6.82319 -13.38630 -38.75710 5.84065 6.77359 -0.68120 3.37780 14.38550 0.09483 -15.70460 7.79623 17.86120 0.00000 0.00000 0.00000 -54.17560 -14.57760 -24.34090 14.04690 29.38590 -74.80360 20.49590 11.25710 12.24650 10.76490 0.80599 3.02458 67.74830 -1.40030 64.35140 1.18707 29.40730 98.42820 -6.87772 9.37036 5.66508 21.96590 -8.06515 3.34353 -11.60760 20.13220 25.73860 -1.38483 -0.72262 0.07271 -3.75047 -6.47100 2.30238 -15.65140 3.82159 -0.23328 3.63409 39.29960 -8.05259 8.35183 -28.73900 1.29386 1.19834 9.08688 -19.92560 
19.32220 95.02720 -41.15930 -6.83281 -13.05720 -37.80710 5.73199 6.66248 -0.49723 2.93270 14.20170 0.50657 -14.93250 7.88400 16.91410 0.00000 0.00000 0.00000 -55.90290 -16.75870 -26.85060 13.39480 28.88500 -77.35930 21.19720 11.18530 11.56650 10.68990 0.80421 3.03506 68.48850 -1.99310 64.90310 1.19883 29.45220 98.72810 -6.94513 9.36796 5.60153 22.13400 -8.18690 3.26735 -11.11840 19.27430 24.98900 -1.46683 -1.29260 0.07385 -2.68961 -4.96643 2.52541 -15.24830 4.33604 -0.33645 3.98160 38.66110 -8.63724 8.46983 -28.72520 1.31566 1.48228 9.86801 -21.05880 
19.24150 95.13440 -40.87590 -6.84065 -12.67920 -36.94200 5.59212 6.55310 -0.31111 2.51687 14.00770 0.89469 -14.23140 7.99136 16.09550 0.00000 0.00000 0.00000 -57.85330 -18.85040 -29.38740 12.69510 28.61020 -79.67080 22.19100 11.13240 10.94030 10.64170 0.80651 3.06686 69.28540 -2.59975 65.44880 1.18506 29.50210 99.05020 -6.95821 9.37084 5.52743 22.26260 -8.32219 3.19117 -10.64880 18.45700 24.34250 -1.55993 -1.87722 0.07462 -1.73056 -3.46964 2.41530 -14.86040 4.76787 -0.45751 4.19613 38.04470 -8.94079 8.49902 -28.63300 1.31444 1.75432 10.59150 -22.51010 
19.22300 95.23260 -40.50760 -6.83537 -12.28970 -36.10850 5.43651 6.44411 -0.14422 2.13637 13.80480 1.22432 -13.59590 8.11029 15.44130 0.00000 0.00000 0.00000 -60.06960 -20.78670 -31.96300 12.00640 28.54160 -81.73760 23.36970 11.09150 10.37970 10.62350 0.81401 3.12716 70.16110 -3.23676 65.94630 1.12373 29.59050 99.40460 -6.90024 9.38054 5.43871 22.28190 -8.45148 3.09698 -10.17860 17.67150 23.74280 -1.67162 -2.33071 0.07640 -1.09108 -2.34118 2.00001 -14.53000 5.16203 -0.57935 4.32116 37.45000 -9.04859 8.50358 -28.43280 1.30045 1.99274 11.19500 -24.14950 
19.27320 95.32060 -40.04510 -6.81771 -11.90190 -35.28010 5.29687 6.33488 -0.00798 1.80072 13.59990 1.48697 -12.97300 8.19397 14.90130 0.00000 0.00000 0.00000 -62.51820 -22.45050 -34.59880 11.26880 28.62120 -83.51390 24.61680 11.06120 9.90939 10.64490 0.82607 3.20814 71.07790 -3.90603 66.37670 1.03955 29.73240 99.77200 -6.78337 9.39481 5.35499 22.16540 -8.55293 3.01888 -9.69714 16.90660 23.03940 -1.80732 -2.51066 0.08099 -0.88345 -1.83867 1.50829 -14.26570 5.53814 -0.67501 4.37443 36.90130 -9.05179 8.59374 -28.21260 1.30108 2.32256 11.94880 -25.81930 
19.40060 95.39350 -39.47980 -6.80921 -11.51170 -34.45870 5.21227 6.22565 0.09256 1.52522 13.40180 1.68631 -12.32890 8.19900 14.38690 0.00000 0.00000 0.00000 -65.08900 -23.77320 -37.26770 10.44510 28.80710 -85.00080 25.85440 11.04570 9.55506 10.73620 0.84307 3.30164 71.92510 -4.58055 66.73990 0.97762 29.91140 100.11800 -6.65856 9.40843 5.29346 21.93070 -8.60794 3.04193 -9.18097 16.16740 22.05570 -2.00124 -2.28800 0.09226 -1.13809 -2.04018 1.07229 -14.05070 5.89236 -0.73853 4.36076 36.44350 -9.00977 8.78199 -28.07670 1.32611 2.91672 13.18790 -27.42020 
